<svg id="Layer_1" data-name="Layer 1" xmlns="http://www.w3.org/2000/svg" viewBox="0 0 504 504.01"><path d="M252,0H252C160.22,0,80,49.46,36,122.93h-.86v1.41A250,250,0,0,0,0,252c0,138.9,113,251.88,251.83,252l.13,0H252C391,504,504,391,504,252S391,0,252,0ZM461.15,368.78H420.69c13.19-33.23,20.88-70.79,21.61-110.63h49.09a238.2,238.2,0,0,1-30.24,110.63ZM342,474c30.34-21.61,55.64-53.92,73.33-92.94h38.31A240.71,240.71,0,0,1,342,474ZM50.34,381.07H88.66c17.69,39,43,71.32,73.36,92.94A240.81,240.81,0,0,1,50.34,381.07ZM12.6,258.14H61.7c.72,39.85,8.41,77.4,21.62,110.63H42.85A238.09,238.09,0,0,1,12.6,258.14ZM42.85,135.21H83.31C70.11,168.44,62.43,206,61.7,245.84H12.6A238,238,0,0,1,42.85,135.21ZM162,30c-30.36,21.62-55.66,53.94-73.36,93H50.32A240.91,240.91,0,0,1,162,30Zm291.66,93H415.35c-17.69-39-43-71.33-73.35-92.95a241,241,0,0,1,111.67,93ZM252,491.7h0c-17.08,0-35.39-42.15-46.07-110.63h92.16c-10.7,68.48-29,110.63-46.09,110.63Zm55.25-245.86H196.75c.25-41.1,2.93-78.48,7.31-110.63h95.86c4.39,32.15,7.05,69.53,7.32,110.63Zm-7.32,122.93H204.06c-4.39-32.15-7.06-69.55-7.31-110.63H307.24c-.26,41.09-2.93,78.48-7.32,110.63Zm-1.84-245.86H205.91C216.6,54.45,234.91,12.29,252,12.28h0c17.11,0,35.39,42.16,46.09,110.63ZM276,14.71c52.86,9.64,98.35,50.39,126,108.2h-91.5C303.16,75,291.58,35.11,276,14.71Zm-82.46,108.2H102c27.61-57.8,73.1-98.56,125.93-108.2C212.41,35.13,200.83,75,193.54,122.91Zm-1.75,12.3a893.12,893.12,0,0,0-7.37,110.63H74c.76-40.1,8.77-77.75,22.49-110.63Zm-7.38,122.93a895.42,895.42,0,0,0,7.38,110.63H96.49C82.76,335.88,74.74,298.2,74,258.14Zm9.13,122.93c7.3,47.94,18.87,87.77,34.44,108.18-52.83-9.63-98.31-50.4-125.93-108.18Zm116.91,0H402c-27.62,57.81-73.1,98.56-125.95,108.18,15.57-20.38,27.15-60.24,34.44-108.18Zm1.75-12.3a895.2,895.2,0,0,0,7.37-110.63H430c-.75,40.07-8.78,77.75-22.52,110.63Zm7.37-122.93a901.15,901.15,0,0,0-7.35-110.63h95.31c13.7,32.9,21.74,70.55,22.49,110.63Zm122.73,0c-.74-39.86-8.42-77.41-21.62-110.63h40.46a238.21,238.21,0,0,1,30.25,110.63Z"/></svg>